<?xml version="1.0" encoding="UTF-8" standalone="no"?><!DOCTYPE svg PUBLIC "-//W3C//DTD SVG 1.1//EN" "http://www.w3.org/Graphics/SVG/1.1/DTD/svg11.dtd"><svg width="100%" height="100%" viewBox="0 0 852 198" version="1.1" xmlns="http://www.w3.org/2000/svg" xmlns:xlink="http://www.w3.org/1999/xlink" xml:space="preserve" xmlns:serif="http://www.serif.com/" style="fill-rule:evenodd;clip-rule:evenodd;stroke-linejoin:round;stroke-miterlimit:1.41421;"><path d="M263.743,107.94l-11.153,-0.116c-3.175,0 -5.615,0.039 -7.319,0.116c-1.239,10.843 -1.859,19.633 -1.859,26.371c0,6.738 0.233,11.463 0.697,14.174c-2.478,0.154 -4.104,0.232 -4.879,0.232c-4.414,0 -7.59,-0.775 -9.526,-2.324c-1.936,-1.549 -2.904,-4.279 -2.904,-8.19c0,-3.911 1.084,-13.302 3.252,-28.172c-2.478,0.775 -4.298,1.433 -5.46,1.975c-0.155,-1.704 -0.232,-2.982 -0.232,-3.834c0,-5.344 2.44,-8.674 7.319,-9.991c1.471,-10.61 2.362,-19.788 2.672,-27.533c-3.95,0 -6.448,-0.542 -7.493,-1.626c-1.046,-1.084 -1.569,-3.485 -1.569,-7.203c0.31,-3.485 0.62,-5.77 0.93,-6.854c8.752,1.162 18.355,1.743 28.811,1.743c10.455,0 20.562,-0.93 30.321,-2.789c-1.084,8.133 -6.041,13.012 -14.87,14.638c-4.802,0.93 -11.656,1.549 -20.563,1.859c-0.077,1.007 -1.2,10.03 -3.369,27.068c4.492,0.155 7.551,0.233 9.178,0.233c7.357,0 12.585,-1.278 15.683,-3.834c0.155,1.549 0.233,2.711 0.233,3.485c0,7.048 -2.634,10.572 -7.9,10.572Z" style="fill:#30af02;fill-rule:nonzero;"/><path d="M318.577,88.539c-5.035,0 -9.527,3.388 -13.476,10.165c-3.95,6.777 -5.925,13.534 -5.925,20.272c0,14.096 3.64,21.144 10.92,21.144c5.189,0 9.41,-3.388 12.663,-10.165c3.253,-6.777 4.879,-14.386 4.879,-22.828c0,-12.392 -3.02,-18.588 -9.061,-18.588Zm7.202,-8.481c4.647,0 8.597,2.285 11.85,6.855c3.253,4.569 4.879,10.688 4.879,18.355c0,8.597 -1.742,16.497 -5.227,23.699c-3.873,8.133 -9.372,13.748 -16.497,16.846c-4.027,1.781 -8.442,2.672 -13.244,2.672c-6.738,0 -12.605,-2.614 -17.6,-7.842c-4.996,-5.228 -7.493,-12.741 -7.493,-22.538c0,-9.797 2.401,-18.433 7.202,-25.906c4.802,-7.474 11.153,-12.179 19.053,-14.116c0.852,0 1.646,0.252 2.381,0.756c0.736,0.503 1.104,1.026 1.104,1.568c-7.822,5.421 -12.508,12.973 -14.057,22.654c1.627,-4.337 3.621,-8.094 5.983,-11.269c2.362,-3.175 4.821,-5.576 7.377,-7.203c4.879,-3.02 9.642,-4.531 14.289,-4.531Z" style="fill:#30af02;fill-rule:nonzero;"/><path d="M390.256,88.539c-5.035,0 -9.527,3.388 -13.477,10.165c-3.949,6.777 -5.924,13.534 -5.924,20.272c0,14.096 3.64,21.144 10.92,21.144c5.189,0 9.41,-3.388 12.663,-10.165c3.253,-6.777 4.879,-14.386 4.879,-22.828c0,-12.392 -3.02,-18.588 -9.061,-18.588Zm7.202,-8.481c4.647,0 8.597,2.285 11.85,6.855c3.253,4.569 4.879,10.688 4.879,18.355c0,8.597 -1.742,16.497 -5.227,23.699c-3.873,8.133 -9.372,13.748 -16.497,16.846c-4.027,1.781 -8.442,2.672 -13.244,2.672c-6.738,0 -12.605,-2.614 -17.6,-7.842c-4.996,-5.228 -7.493,-12.741 -7.493,-22.538c0,-9.797 2.401,-18.433 7.202,-25.906c4.802,-7.474 11.153,-12.179 19.053,-14.116c0.852,0 1.646,0.252 2.381,0.756c0.736,0.503 1.104,1.026 1.104,1.568c-7.822,5.421 -12.508,12.973 -14.057,22.654c1.627,-4.337 3.621,-8.094 5.983,-11.269c2.362,-3.175 4.821,-5.576 7.377,-7.203c4.879,-3.02 9.642,-4.531 14.289,-4.531Z" style="fill:#30af02;fill-rule:nonzero;"/><path d="M441.372,123.275c0,9.216 2.788,13.825 8.364,13.825c2.943,0 5.809,-1.588 8.597,-4.764c2.788,-3.175 5.054,-7.435 6.796,-12.779c1.743,-5.344 3.253,-11.055 4.531,-17.135c1.278,-6.08 2.227,-12.528 2.846,-19.343c1.085,-13.166 1.627,-23.448 1.627,-30.844c0,-7.396 -0.31,-12.953 -0.93,-16.671c5.577,1.239 9.488,3.872 11.734,7.9c2.246,4.027 3.369,9.1 3.369,15.219c0,6.118 -1.297,17.503 -3.892,34.154c-2.594,16.652 -3.892,28.811 -3.892,36.479c0,7.667 0.349,14.173 1.046,19.517c-5.499,-1.471 -9.275,-4.124 -11.327,-7.958c-2.052,-3.834 -3.079,-8.655 -3.079,-14.463c-2.401,6.66 -6.002,11.927 -10.804,15.799c-4.802,3.873 -9.758,5.809 -14.87,5.809c-5.112,0 -9.274,-1.956 -12.489,-5.867c-3.214,-3.911 -4.821,-9.662 -4.821,-17.252c0,-12.004 3.292,-22.324 9.875,-30.96c6.583,-8.635 14.367,-12.953 23.351,-12.953c2.556,0 6.583,0.619 12.082,1.859c-4.802,1.239 -9.081,3.388 -12.837,6.447c-3.757,3.059 -6.68,6.564 -8.771,10.514c-4.338,7.822 -6.506,15.645 -6.506,23.467Z" style="fill:#30af02;fill-rule:nonzero;"/><path d="M524.552,86.564c-2.169,0 -4.105,0.717 -5.809,2.149c-1.703,1.433 -2.555,3.466 -2.555,6.099c0,2.634 0.91,5.112 2.73,7.436c1.82,2.323 4.046,4.356 6.68,6.099c2.633,1.742 5.286,3.524 7.957,5.344c2.672,1.82 5.015,4.066 7.029,6.738c2.014,2.672 3.137,5.634 3.369,8.887c0,5.576 -2.401,10.262 -7.203,14.057c-4.802,3.795 -10.765,5.692 -17.89,5.692c-7.126,0 -12.721,-1.432 -16.787,-4.298c-4.067,-2.866 -6.1,-6.157 -6.1,-9.875c0,-3.717 1.143,-6.718 3.428,-9.003c2.284,-2.285 5.131,-3.427 8.538,-3.427c1.782,0 3.447,0.309 4.996,0.929c-2.479,2.633 -3.718,5.422 -3.718,8.365c0,2.943 0.813,5.305 2.44,7.086c1.626,1.781 3.834,2.672 6.622,2.672c2.788,0 5.131,-0.716 7.028,-2.149c1.898,-1.433 2.846,-3.292 2.846,-5.576c0,-2.285 -0.658,-4.318 -1.975,-6.099c-1.316,-1.782 -2.962,-3.35 -4.937,-4.706c-1.975,-1.355 -4.124,-2.884 -6.448,-4.588c-2.323,-1.704 -4.472,-3.427 -6.447,-5.17c-1.975,-1.743 -3.621,-3.95 -4.937,-6.622c-1.317,-2.672 -1.975,-5.596 -1.975,-8.771c0,-5.499 2.265,-10.01 6.796,-13.534c4.53,-3.524 10.184,-5.286 16.961,-5.286c6.777,0 11.734,1.316 14.87,3.95c3.137,2.633 4.705,5.712 4.705,9.236c0,3.523 -1.103,6.525 -3.311,9.003c-2.207,2.478 -5.053,3.718 -8.538,3.718c-1.704,0 -3.641,-0.349 -5.809,-1.046c1.704,-1.472 3.02,-3.156 3.95,-5.054c0.929,-1.897 1.394,-3.775 1.394,-5.634c0,-1.859 -0.775,-3.427 -2.324,-4.705c-1.549,-1.278 -3.407,-1.917 -5.576,-1.917Z" style="fill:#30af02;fill-rule:nonzero;"/><path d="M571.602,148.717c-4.414,0 -7.59,-0.775 -9.526,-2.324c-1.936,-1.549 -2.904,-4.143 -2.904,-7.783c0,-3.64 1.297,-14.657 3.892,-33.052c2.594,-18.394 3.891,-31.521 3.891,-39.382c0,-7.861 -0.542,-12.992 -1.626,-15.393c7.9,0.619 13.089,3.717 15.567,9.294c5.964,-3.253 12.528,-4.88 19.692,-4.88c7.164,0 12.817,2.227 16.961,6.68c4.143,4.454 6.215,9.933 6.215,16.439c0,8.054 -2.943,15.335 -8.829,21.84c-2.866,3.098 -6.564,5.615 -11.095,7.552c-4.53,1.936 -9.545,2.904 -15.044,2.904c-2.324,0 -4.531,-0.155 -6.622,-0.465l-0.348,-4.879c0.309,0 0.619,0 0.929,0c8.752,0 15.722,-3.253 20.911,-9.759c3.563,-4.646 5.344,-9.526 5.344,-14.637c0,-7.513 -3.059,-12.47 -9.178,-14.871c-5.189,-1.936 -10.997,-1.549 -17.426,1.162l0,0.233c0,2.943 -1.103,12.566 -3.311,28.869c-2.207,16.303 -3.31,29.914 -3.31,40.835c0,4.879 0.232,8.674 0.697,11.385c-2.479,0.154 -4.105,0.232 -4.88,0.232Z" style="fill:#30af02;fill-rule:nonzero;"/><path d="M663.96,88.539c-5.034,0 -9.526,3.388 -13.476,10.165c-3.95,6.777 -5.925,13.534 -5.925,20.272c0,14.096 3.64,21.144 10.92,21.144c5.19,0 9.411,-3.388 12.663,-10.165c3.253,-6.777 4.88,-14.386 4.88,-22.828c0,-12.392 -3.021,-18.588 -9.062,-18.588Zm7.203,-8.481c4.647,0 8.597,2.285 11.85,6.855c3.252,4.569 4.879,10.688 4.879,18.355c0,8.597 -1.743,16.497 -5.228,23.699c-3.872,8.133 -9.371,13.748 -16.497,16.846c-4.027,1.781 -8.442,2.672 -13.243,2.672c-6.738,0 -12.605,-2.614 -17.601,-7.842c-4.995,-5.228 -7.493,-12.741 -7.493,-22.538c0,-9.797 2.401,-18.433 7.203,-25.906c4.802,-7.474 11.153,-12.179 19.052,-14.116c0.852,0 1.646,0.252 2.382,0.756c0.736,0.503 1.104,1.026 1.104,1.568c-7.823,5.421 -12.508,12.973 -14.057,22.654c1.626,-4.337 3.62,-8.094 5.983,-11.269c2.362,-3.175 4.821,-5.576 7.377,-7.203c4.879,-3.02 9.642,-4.531 14.289,-4.531Z" style="fill:#30af02;fill-rule:nonzero;"/><path d="M703.808,127.69c0,-3.253 0.619,-9.139 1.858,-17.659c1.24,-8.519 1.859,-15.141 1.859,-19.866c0,-4.724 -0.232,-8.364 -0.697,-10.92c1.704,-0.155 3.292,-0.232 4.763,-0.232c4.492,0 7.61,0.755 9.352,2.265c1.743,1.51 2.614,4.086 2.614,7.726c0,1.161 -0.949,7.261 -2.846,18.297c-1.898,11.037 -2.866,20.137 -2.904,27.301c-0.039,7.164 0.406,11.791 1.336,13.883c-6.042,-1.549 -10.108,-3.892 -12.199,-7.029c-2.091,-3.137 -3.136,-7.725 -3.136,-13.766Zm15.799,-58.436c-7.977,0 -11.966,-2.788 -11.966,-8.364c0,-2.014 0.581,-4.763 1.743,-8.249c2.169,-0.309 4.066,-0.464 5.692,-0.464c7.978,0 11.966,2.788 11.966,8.364c0,2.014 -0.581,4.763 -1.742,8.249c-2.169,0.309 -4.066,0.464 -5.693,0.464Z" style="fill:#30af02;fill-rule:nonzero;"/><path d="M783.038,79.71c4.569,0 7.842,1.413 9.817,4.24c1.974,2.827 2.962,6.661 2.962,11.501c0,4.841 -0.755,11.637 -2.265,20.389c-1.511,8.752 -2.266,15.122 -2.266,19.11c0,3.989 0.504,6.893 1.51,8.713c1.007,1.82 2.711,3.389 5.112,4.705c-1.007,0.078 -2.44,0.117 -4.298,0.117c-6.506,0 -11.134,-1.007 -13.883,-3.021c-2.75,-2.014 -4.124,-5.538 -4.124,-10.572c0,-2.865 0.774,-8.461 2.323,-16.787c1.549,-8.326 2.324,-14.541 2.324,-18.646c0,-5.111 -1.549,-7.667 -4.647,-7.667c-1.782,0 -3.795,1.045 -6.041,3.137c-2.246,2.091 -4.415,4.937 -6.506,8.538c-2.091,3.602 -3.834,8.229 -5.228,13.883c-1.394,5.654 -2.091,11.288 -2.091,16.903c0,5.615 0.232,9.778 0.697,12.489c-2.478,0.155 -4.105,0.232 -4.879,0.232c-4.415,0 -7.59,-0.774 -9.526,-2.323c-1.937,-1.549 -2.905,-4.105 -2.905,-7.668c0,-1.549 0.814,-7.512 2.44,-17.89c1.626,-10.378 2.44,-18.646 2.44,-24.803c0,-6.158 -0.659,-11.831 -1.975,-17.02c5.653,1.782 9.603,4.318 11.849,7.61c2.246,3.291 3.369,7.047 3.369,11.268c0,4.221 -0.464,9.12 -1.394,14.696c2.556,-8.674 6.583,-16.032 12.082,-22.073c5.499,-6.041 10.533,-9.061 15.103,-9.061Z" style="fill:#30af02;fill-rule:nonzero;"/><path d="M833.341,106.662c-1.239,6.893 -2.207,13.012 -2.904,18.356c-0.697,5.343 -1.046,10.804 -1.046,16.38c0,5.576 0.542,9.565 1.626,11.966c-5.963,-1.549 -10.068,-3.931 -12.314,-7.145c-2.246,-3.214 -3.369,-7.764 -3.369,-13.65c0,-5.189 0.813,-12.295 2.44,-21.318c1.626,-9.023 2.672,-15.122 3.136,-18.297c-4.027,0.697 -8.325,2.052 -12.895,4.066c-0.155,-1.704 -0.232,-2.982 -0.232,-3.834c0,-4.105 1.239,-6.912 3.717,-8.423c2.479,-1.51 6.041,-2.304 10.688,-2.381c0.542,-5.809 0.814,-9.991 0.814,-12.547c0,-2.556 -0.02,-4.686 -0.059,-6.389c-0.038,-1.704 -0.058,-2.982 -0.058,-3.834c5.112,0.542 8.83,2.072 11.153,4.589c2.323,2.517 3.485,6.099 3.485,10.746c0,1.859 -0.193,4.453 -0.581,7.783c6.506,-0.154 11.269,-1.432 14.29,-3.833c0.155,1.549 0.232,2.71 0.232,3.485c0,3.717 -0.658,6.293 -1.975,7.725c-1.317,1.433 -3.524,2.15 -6.622,2.15c-3.098,0 -5.46,-0.039 -7.086,-0.117c-0.388,2.789 -1.201,7.629 -2.44,14.522Z" style="fill:#30af02;fill-rule:nonzero;"/><path id="svg_2" d="M98.5,0c-54.035,0 -98.5,44.465 -98.5,98.5c0,54.036 44.465,98.5 98.5,98.5c54.036,0 98.5,-44.464 98.5,-98.5c-0.065,-54.011 -44.489,-98.435 -98.5,-98.5Zm0,188.746c-49.507,0 -90.246,-40.739 -90.246,-90.246c0,-49.507 40.739,-90.246 90.246,-90.246c49.507,0 90.246,40.739 90.246,90.246c-0.054,49.487 -40.759,90.192 -90.246,90.246Z" style="fill:#30af02;fill-rule:nonzero;"/><path id="svg_21" serif:id="svg_2" d="M117.359,38.684c-0.718,-0.587 -1.613,-0.908 -2.536,-0.908c-2.211,0 -4.031,1.841 -4.035,4.079l0,107.322c-0.006,0.164 -0.009,0.329 -0.009,0.494c0,6.883 5.594,12.547 12.391,12.547c6.798,0 12.392,-5.664 12.392,-12.547c0,-0.165 -0.003,-0.33 -0.009,-0.494c-0.007,-0.165 0,-0.156 0,-0.234l-2.075,-36.396c19.442,-43.808 -15.754,-73.551 -16.119,-73.863c0,0 0,0 0,0Zm10.125,110.571c0.021,0.177 0.032,0.355 0.032,0.534c0,2.422 -1.969,4.416 -4.362,4.416c-2.392,0 -4.361,-1.994 -4.361,-4.416c0,-0.211 0.015,-0.422 0.045,-0.632l0,-97.089c8.069,10.291 19.212,31.125 6.916,57.989c-0.278,0.608 -0.404,1.276 -0.365,1.945l2.095,37.253l0,0Z" style="fill:#30af02;fill-rule:nonzero;stroke:#000;stroke-width:0.23px;"/><path id="svg_1" d="M93.183,37.042c-2.223,0 -4.053,1.855 -4.053,4.109l0,33.063c0.002,3.68 -2.016,7.071 -5.229,8.784c-1.367,0.73 -2.207,2.191 -2.162,3.756l1.93,62.253c0.031,0.213 0.047,0.428 0.047,0.644c0,2.436 -1.978,4.441 -4.381,4.441c-2.403,0 -4.381,-2.005 -4.381,-4.441c0,-0.176 0.011,-0.352 0.031,-0.527l1.93,-62.37c0.046,-1.565 -0.795,-3.026 -2.161,-3.756c-3.221,-1.708 -5.248,-5.1 -5.249,-8.784l0,-33.141c0.006,-0.095 0.009,-0.189 0.009,-0.284c0,-2.254 -1.829,-4.108 -4.052,-4.108c-2.223,0 -4.053,1.854 -4.053,4.108c0,0.095 0.003,0.189 0.01,0.284l0,33.141c-0.004,5.781 2.725,11.228 7.333,14.634l-1.93,60.159c-0.139,7.105 5.497,13.075 12.505,13.245c7.045,-0.232 12.654,-6.299 12.428,-13.441l-1.775,-59.963c4.578,-3.423 7.277,-8.867 7.256,-14.634l0,-33.141c-0.042,-2.225 -1.859,-4.031 -4.053,-4.031l0,0l0,0Z" style="fill:#30af02;fill-rule:nonzero;"/><path id="svg_22" serif:id="svg_2" d="M79.08,74.558c2.11,0 3.847,-1.817 3.847,-4.025l0,-28.442c-0.139,-2.098 -1.828,-3.747 -3.838,-3.747c-2.011,0 -3.699,1.649 -3.838,3.747l0,28.634c0.097,2.127 1.793,3.825 3.829,3.833l0,0Z" style="fill:#00c200;fill-rule:nonzero;"/></svg>